<svg xmlns="http://www.w3.org/2000/svg" width="124" height="58.075" viewBox="0 0 124 58.075">
  <g id="Logo-IGS" transform="translate(-1.3 -1)">
    <path id="Path_10025" data-name="Path 10025" d="M10.758,53.623a2.852,2.852,0,0,1-2.838,2.27c-2.081,0-3.405-1.608-3.405-4.067,0-2.27,1.135-3.973,3.31-3.973a3.11,3.11,0,0,1,2.838,1.8l2.648-1.324A6.125,6.125,0,0,0,7.826,45.3C3.948,45.3,1.3,47.854,1.3,51.921c0,3.973,2.648,6.621,6.432,6.621,3.878,0,6.243-2.838,6.243-6.432v-.662H7.732v2.459h3.027Z" transform="translate(0 -2.399)" fill="#1390cf"/>
    <path id="Path_10026" data-name="Path 10026" d="M26.5,53.2c0-3.216-1.892-5.3-5.2-5.3A5.038,5.038,0,0,0,16,53.291c0,3.027,1.986,5.3,5.486,5.3A6.779,6.779,0,0,0,26.4,56.7l-1.892-1.7a4.1,4.1,0,0,1-2.838,1.23,2.358,2.358,0,0,1-2.554-2.175H26.4A3.258,3.258,0,0,0,26.5,53.2m-7.378-1.135a2.066,2.066,0,0,1,2.27-1.986,2.066,2.066,0,0,1,2.27,1.986Z" transform="translate(-0.796 -2.54)" fill="#1390cf" fill-rule="evenodd"/>
    <path id="Path_10027" data-name="Path 10027" d="M28.9,44.4V58.02h2.932V56.885A4.041,4.041,0,0,0,34.953,58.3c2.838,0,4.635-2.27,4.635-5.3s-1.8-5.3-4.635-5.3a4.041,4.041,0,0,0-3.121,1.419V44.495H28.9Zm2.932,8.607c0-1.513.757-2.838,2.365-2.838s2.27,1.324,2.27,2.838-.757,2.838-2.27,2.838-2.365-1.324-2.365-2.838" transform="translate(-1.495 -2.35)" fill="#1390cf" fill-rule="evenodd"/>
    <path id="Path_10028" data-name="Path 10028" d="M52.383,53.191A5.064,5.064,0,0,0,46.991,47.8,5.064,5.064,0,0,0,41.6,53.191c0,3.216,2.081,5.3,5.391,5.3s5.391-2.081,5.391-5.3m-3.121,0c0,1.7-.757,2.932-2.27,2.932s-2.27-1.23-2.27-2.932.851-2.932,2.27-2.932c1.513,0,2.27,1.23,2.27,2.932" transform="translate(-2.183 -2.535)" fill="#1390cf" fill-rule="evenodd"/>
    <path id="Path_10029" data-name="Path 10029" d="M62.675,45.4H59.648v8.418c0,1.23-.568,1.892-1.8,1.892a1.892,1.892,0,0,1-1.8-1.23c-.851.378-1.7.851-2.554,1.23a4.582,4.582,0,0,0,4.54,2.743,4.274,4.274,0,0,0,4.635-4.635V45.4Z" transform="translate(-2.827 -2.405)" fill="#1c5892"/>
    <path id="Path_10030" data-name="Path 10030" d="M75.6,58.11l-.284-1.8a.709.709,0,0,1-.473.095c-.378,0-.568-.189-.568-.662V51.394c0-2.554-1.7-3.594-4.256-3.594a8.635,8.635,0,0,0-4.445,1.135l.946,2.175a6.664,6.664,0,0,1,3.216-.946c.757,0,1.608.189,1.608.946,0,.851-1.04.851-2.459,1.135-1.608.189-3.689.473-3.689,3.027,0,1.986,1.513,3.121,3.5,3.121a4,4,0,0,0,3.31-1.419A2.092,2.092,0,0,0,74.186,58.3,2.58,2.58,0,0,0,75.6,58.11m-4.351-3.594a1.766,1.766,0,0,1-1.986,1.892,1.169,1.169,0,0,1-1.324-1.23c0-.946.662-1.135,1.419-1.23.946-.095,1.513-.189,1.892-.662Z" transform="translate(-3.461 -2.535)" fill="#1c5892" fill-rule="evenodd"/>
    <path id="Path_10031" data-name="Path 10031" d="M87.788,56.213V47.984H84.856v1.135A3.906,3.906,0,0,0,81.735,47.7,4.6,4.6,0,0,0,77.1,52.618a4.6,4.6,0,0,0,4.635,4.918,3.906,3.906,0,0,0,3.121-1.419v.662c0,1.7-1.324,2.365-3.027,2.365a6.155,6.155,0,0,1-3.31-.851l-1.04,2.175A8.169,8.169,0,0,0,81.924,61.6,6.4,6.4,0,0,0,86.653,60c.851-.851,1.135-2.081,1.135-3.783m-2.932-3.5a2.335,2.335,0,0,1-2.365,2.554,2.265,2.265,0,0,1-2.27-2.554,2.189,2.189,0,0,1,2.27-2.459,2.259,2.259,0,0,1,2.365,2.459" transform="translate(-4.105 -2.529)" fill="#1c5892" fill-rule="evenodd"/>
    <path id="Path_10032" data-name="Path 10032" d="M100.7,53.2c0-3.216-1.892-5.3-5.2-5.3a5.038,5.038,0,0,0-5.3,5.391c0,3.027,1.986,5.3,5.486,5.3A6.779,6.779,0,0,0,100.6,56.7l-1.892-1.7a4.1,4.1,0,0,1-2.838,1.23,2.358,2.358,0,0,1-2.554-2.175H100.7q0-.568,0-.851m-7.378-1.135a2.29,2.29,0,0,1,4.54,0Z" transform="translate(-4.815 -2.54)" fill="#1c5892" fill-rule="evenodd"/>
    <path id="Path_10033" data-name="Path 10033" d="M115.78,58.3h2.932v-6.81c0-1.986-1.04-3.689-3.405-3.689a4.28,4.28,0,0,0-3.405,1.7,2.9,2.9,0,0,0-2.838-1.7,3.67,3.67,0,0,0-2.932,1.419V48.084H103.2V58.3h2.932V52.624c0-1.419.757-2.081,1.8-2.081a1.51,1.51,0,0,1,1.608,1.7v6.148h2.932V52.718c0-1.419.757-2.081,1.8-2.081a1.51,1.51,0,0,1,1.608,1.7V58.3Z" transform="translate(-5.519 -2.535)" fill="#1c5892"/>
    <path id="Path_10034" data-name="Path 10034" d="M131.8,58.11l-.284-1.8a.709.709,0,0,1-.473.095c-.378,0-.568-.189-.568-.662V51.394c0-2.554-1.7-3.594-4.351-3.594a8.635,8.635,0,0,0-4.445,1.135l.946,2.175a6.664,6.664,0,0,1,3.216-.946c.757,0,1.608.189,1.608.946,0,.851-1.04.851-2.459,1.135-1.608.189-3.689.473-3.689,3.027,0,1.986,1.513,3.121,3.5,3.121a4,4,0,0,0,3.31-1.419,2.092,2.092,0,0,0,2.175,1.324,2.7,2.7,0,0,0,1.513-.189m-4.256-3.594c0,1.324-.757,1.892-1.986,1.892a1.169,1.169,0,0,1-1.324-1.23c0-.946.662-1.135,1.419-1.23.946-.095,1.513-.189,1.892-.662Z" transform="translate(-6.499 -2.535)" fill="#1c5892" fill-rule="evenodd"/>
    <rect id="Rectangle_2147" data-name="Rectangle 2147" width="8.607" height="13.242" transform="translate(53.511 8.378)" fill="#1390cf"/>
    <rect id="Rectangle_2148" data-name="Rectangle 2148" width="8.607" height="15.985" transform="translate(53.511 22.754)" fill="#1390cf"/>
    <path id="Path_10035" data-name="Path 10035" d="M129.062,14.726C125.846,9.808,121.306,8.2,116.1,8.2,108.915,8.2,104,11.889,104,18.037c0,6.81,5.486,8.323,10.121,9.08,3.878.662,7.094.851,7.094,3.121,0,1.608-2.081,2.554-4.256,2.554a8.051,8.051,0,0,1-7.661-4.351L102.2,31.468c2.554,5.013,7,8.229,14.282,8.229,8.513,0,13.147-4.729,13.147-10.215,0-6.243-5.013-8.323-12.107-9.364-3.31-.473-5.108-1.04-5.108-2.648,0-1.513,1.7-2.175,3.689-2.175a7.581,7.581,0,0,1,6.243,3.027Z" transform="translate(-5.464 -0.39)" fill="#1390cf"/>
    <path id="Path_10036" data-name="Path 10036" d="M68.9,21.619c.757-8.229,6.432-13.431,14.755-13.809V1H84.79V7.81a14.816,14.816,0,0,1,13.62,8.04l-7.472,3.689a6.793,6.793,0,0,0-6.148-4.351v6.432H83.655V15.282c-3.405.378-5.3,2.932-5.77,6.337Z" transform="translate(-3.661)" fill="#1390cf"/>
    <path id="Path_10037" data-name="Path 10037" d="M85.7,40.487c9.364-.095,15.039-6.9,15.039-15.8,0-.662-.095-1.23-.095-1.892H85.7v6.81h5.486A5.651,5.651,0,0,1,85.7,33.583Z" transform="translate(-4.571 -1.181)" fill="#1390cf"/>
    <path id="Path_10038" data-name="Path 10038" d="M83.65,33.553c-3.689-.473-5.959-3.594-5.959-8.8V24H68.8v.757c0,9.269,5.959,15.417,14.85,15.8Z" transform="translate(-3.656 -1.246)" fill="#1390cf"/>
  </g>
</svg>
