<svg xmlns="http://www.w3.org/2000/svg" width="68" height="68" viewBox="0 0 68 68">
  <g id="Group_2263" data-name="Group 2263" transform="translate(-2.69 6)">
    <path id="Subtraction_1" data-name="Subtraction 1" d="M-2511.31-1749h-64a2,2,0,0,1-2-2v-64a2,2,0,0,1,2-2h64a2,2,0,0,1,2,2v64A2,2,0,0,1-2511.31-1749Zm-41.928-48.462a1,1,0,0,0-1,1v26.921a1,1,0,0,0,1,1,.981.981,0,0,0,.492-.132l23.691-13.46a.989.989,0,0,0,.506-.87.989.989,0,0,0-.506-.869l-23.691-13.46A.985.985,0,0,0-2553.237-1797.462Z" transform="translate(2580 1811)" fill="#fff"/>
  </g>
</svg>
